<?xml version="1.0" encoding="utf-8"?>
<!-- Generator: Adobe Illustrator 23.0.1, SVG Export Plug-In . SVG Version: 6.00 Build 0)  -->
<svg version="1.1" id="Layer_1" xmlns="http://www.w3.org/2000/svg" xmlns:xlink="http://www.w3.org/1999/xlink" x="0px" y="0px"
	 viewBox="0 0 500 500" style="enable-background:new 0 0 500 500;" xml:space="preserve">
<style type="text/css">
	.st0{fill:#E8E5C5;}
</style>
<g>
	<g>
		<path class="st0" d="M303.6,193.2l-16.2-17.8l8.6-6.2c0.8-0.5,1.2-1.4,1.3-2.3c0.1-0.9-0.3-1.8-1-2.5l-12.4-11.1
			c-1.2-1.1-3-1.1-4.1,0L253.5,177c-0.7,0.7-1.1,1.7-1,2.7c0.1,1,0.7,1.9,1.6,2.3c12.1,6.5,22.2,18.6,27.8,33.1
			c10.8,28.2,1.8,57.9-19.9,66.2c-21.8,8.3-48.2-7.9-59-36.1c-5.5-14.5-6.1-30.3-1.4-43.2c0.3-0.9,0.2-2-0.4-2.8
			c-0.6-0.8-1.5-1.3-2.5-1.3l-35.3-0.2c-1.6,0-2.9,1.2-3.1,2.8l-1.8,16.6c-0.1,0.9,0.2,1.9,0.9,2.5c0.7,0.7,1.6,1,2.5,0.9l10.6-1.1
			l-0.2,24.1c-0.4,11.2,1.5,22.4,5.6,33c16,41.8,61.2,63.4,100.8,48.3s58.9-61.4,42.9-103.2C317.4,210.9,311.4,201.3,303.6,193.2z
			 M276.3,319c-36.4,13.9-78.1-6.1-92.8-44.7c-3.8-9.9-5.5-20.2-5.2-30.7c0,0,0-0.1,0-0.1l0.3-27.6c0-0.9-0.4-1.7-1-2.3
			c-0.7-0.6-1.5-0.9-2.4-0.8l-10.2,1.1l1.1-10l28.4,0.2c-3.7,13.4-2.8,29,2.7,43.4c5.8,15.1,15.8,27.5,28.3,35
			c12.7,7.7,26.5,9.3,38.7,4.6c12.2-4.7,21.4-15.1,25.7-29.2c4.3-13.9,3.5-29.9-2.3-45c-5.5-14.4-15.2-26.6-26.9-34.1l21-19.1
			l7.5,6.7l-8.3,6c-0.7,0.5-1.2,1.3-1.3,2.2s0.2,1.8,0.8,2.4l18.6,20.4c0,0,0,0,0.1,0.1c7.2,7.5,12.8,16.4,16.6,26.3
			C330.4,262.3,312.8,305,276.3,319z"/>
	</g>
</g>
<g>
	<g>
		<path class="st0" d="M214.8,287.2c-5.4,2.1-8.1,8.1-6,13.5s8.1,8.1,13.5,6c5.4-2.1,8.1-8.1,6-13.5
			C226.3,287.9,220.2,285.2,214.8,287.2z M220.1,301c-2.2,0.8-4.7-0.3-5.5-2.5c-0.8-2.2,0.3-4.7,2.5-5.5c2.2-0.8,4.7,0.3,5.5,2.5
			C223.4,297.7,222.3,300.2,220.1,301z"/>
	</g>
</g>
<g>
	<g>
		<path class="st0" d="M301,254.3c-5.4,2.1-8.1,8.1-6,13.5c2.1,5.4,8.1,8.1,13.5,6c5.4-2.1,8.1-8.1,6-13.5
			C312.5,255,306.4,252.2,301,254.3z M306.3,268.1c-2.2,0.8-4.7-0.3-5.5-2.5c-0.8-2.2,0.3-4.7,2.5-5.5c2.2-0.8,4.7,0.3,5.5,2.5
			C309.6,264.8,308.5,267.2,306.3,268.1z"/>
	</g>
</g>
<g>
	<g>
		<path class="st0" d="M266.9,294.2c-5.4,2.1-8.1,8.1-6,13.5c2.1,5.4,8.1,8.1,13.5,6c5.4-2.1,8.1-8.1,6-13.5
			C278.3,294.9,272.3,292.2,266.9,294.2z M272.2,308c-2.2,0.8-4.7-0.3-5.5-2.5c-0.8-2.2,0.3-4.7,2.5-5.5c2.2-0.8,4.7,0.3,5.5,2.5
			C275.5,304.7,274.4,307.2,272.2,308z"/>
	</g>
</g>
</svg>
